<svg xmlns="http://www.w3.org/2000/svg" viewBox="0 0 133.8 86.33"><defs><style>.cls-1,.cls-4{font-size:20px;}.cls-1{font-family:AktivGrotesk-Bold, Aktiv Grotesk;font-weight:700;letter-spacing:0.05em;}.cls-2{letter-spacing:-0.04em;}.cls-3{letter-spacing:0.05em;}.cls-4{font-family:AktivGrotesk-Light, Aktiv Grotesk;font-weight:300;letter-spacing:0.03em;}.cls-5{letter-spacing:0.04em;}</style></defs><g id="Слой_2" data-name="Слой 2"><g id="Слой_2-2" data-name="Слой 2"><path d="M28.06,52.32a10.2,10.2,0,0,1-7.84-9.85c.06-4.49,3.33-8.47,6.45-9.1C27,33.31,28.62,33.2,32,33c2.22-.15,2.66-.16,3.28-.51,1.06-.6,2.47-2,4-5.27,1.84-4,2-3.81,2.49-4.11a4.13,4.13,0,0,1,3.78-.22c1.75.47,2,1.22,3.54,1.76a8.92,8.92,0,0,0,5.81-.25c4-1.19,25.58-7.23,55.24-15.67A5.87,5.87,0,0,1,113.88,8a6.29,6.29,0,0,1,4.42,3.29l4.8.38c0-1,0-2,0-2.93l-4.22-4.61c0-.6,0-1.2,0-1.81L106.59,5.9A6.78,6.78,0,0,1,104.12,8a6.42,6.42,0,0,1-1.91.6L55.53,21.44c-1,.22-2.43.38-3.12-.41-.53-.6-.3-1.43,0-4s.47-4.07.17-4.84a5.64,5.64,0,0,0-4.19-3c-1.47-.27-3,0-6.07,1.8-5.74,3.32-5.44,5.21-8.78,6.48-2.7,1-5.35.58-10.67-.32s-5.83-2-9.51-2c-2.17,0-5.92,0-8.95,2.38s-3.74,6-4.1,7.87c-2.56,13.55,11.45,24.87,12.8,25.93,3.53,2.78,6,3.47,8.21,3.45A11.53,11.53,0,0,0,28.06,52.32Z"/><circle cx="107.28" cy="3.97" r="1.32"/><circle cx="111.43" cy="2.64" r="1.32"/><circle cx="115.48" cy="1.32" r="1.32"/><text class="cls-1" transform="translate(30.06 50.85)">GUI<tspan class="cls-2" x="37.34" y="0">T</tspan><tspan class="cls-3" x="48.86" y="0">AR</tspan></text><text class="cls-4" transform="translate(46.78 69.71)">S<tspan class="cls-5" x="13.42" y="0">CHOOL</tspan></text></g></g></svg>